<svg width="37" height="37" viewBox="0 0 37 37" fill="none" xmlns="http://www.w3.org/2000/svg">
<g clip-path="url(#clip0_2_7667)">
<path d="M30.3532 20.4584C30.7862 19.6456 31.067 18.7605 31.1818 17.8468C31.3939 16.0645 30.8907 14.2446 29.7648 12.7219C28.7226 11.333 27.2868 10.2895 25.644 9.72695C25.8288 9.62964 26.0032 9.51357 26.1642 9.38057L25.7117 8.8291C25.2083 9.24233 24.6469 9.39455 23.8495 9.33235C22.1791 9.15977 20.4984 9.54413 19.069 10.4256C19.0291 10.4502 18.9944 10.4823 18.9669 10.5202C18.9394 10.5582 18.9197 10.6011 18.9088 10.6467C18.8979 10.6923 18.8961 10.7395 18.9035 10.7858C18.9109 10.832 18.9273 10.8764 18.9518 10.9163C18.9764 10.9562 19.0085 10.9909 19.0464 11.0183C19.0844 11.0458 19.1273 11.0656 19.1729 11.0764C19.2185 11.0873 19.2657 11.0891 19.312 11.0817C19.3582 11.0743 19.4026 11.0579 19.4425 11.0334C20.6565 10.285 22.0725 9.93093 23.4959 10.0199C23.7064 10.7284 23.6778 11.2825 23.4067 11.8407L24.0483 12.1524C24.3605 11.5099 24.4289 10.863 24.2565 10.1071C24.4447 10.1391 24.6325 10.1784 24.82 10.2253C26.5669 10.6732 28.1088 11.7035 29.1911 13.146C30.9764 15.5605 30.7932 18.0322 29.7071 20.1125C29.0231 20.548 28.4508 20.6787 27.8075 20.5464L27.6641 21.2455C27.8662 21.2878 28.072 21.3095 28.2784 21.3101C28.533 21.3097 28.7864 21.2746 29.0316 21.2056C28.5492 21.8728 27.9933 22.4835 27.3743 23.0263C25.3734 24.7894 24.398 26.6036 23.9484 28.1467C23.4919 28.7958 23.019 29.1311 22.3827 29.2567L22.5212 29.9565C22.9364 29.8789 23.3292 29.7102 23.6714 29.4627C23.6445 29.6669 23.6258 29.8631 23.6143 30.0494C23.4827 32.193 24.2029 34.319 25.5902 35.8822C25.6212 35.9176 25.6589 35.9464 25.7011 35.9671C25.7433 35.9878 25.7891 36 25.836 36.0029C25.883 36.0058 25.93 35.9995 25.9744 35.9841C26.0189 35.9688 26.0599 35.9449 26.095 35.9137C26.1302 35.8825 26.1588 35.8446 26.1793 35.8023C26.1997 35.76 26.2116 35.714 26.2143 35.6671C26.217 35.6202 26.2103 35.5732 26.1947 35.5288C26.1792 35.4845 26.155 35.4436 26.1236 35.4087C24.861 33.9863 24.2059 32.0489 24.326 30.0931C24.3482 29.7379 24.3945 29.3847 24.4645 29.0358C24.8657 29.5049 25.4068 29.8329 26.0082 29.9716L26.1752 29.2781C25.5617 29.1306 25.1104 28.7922 24.6907 28.159C25.133 26.766 26.046 25.1473 27.8459 23.5613C28.6063 22.9012 29.2781 22.1453 29.8444 21.3126C30.0401 21.8629 30.3991 22.3403 30.8735 22.681L31.2959 22.1062C30.778 21.7256 30.4921 21.2278 30.3532 20.4584Z" fill="#C79A83"/>
<path d="M11.7762 4.7016V1.39181C11.7762 1.29722 11.7386 1.20651 11.6718 1.13962C11.6049 1.07273 11.5142 1.03516 11.4196 1.03516C11.325 1.03516 11.2343 1.07273 11.1674 1.13962C11.1005 1.20651 11.0629 1.29722 11.0629 1.39181V4.82999L4.11914 11.0796L4.59628 11.6098L11.4909 5.40464L18.3854 11.6098L18.8626 11.0796L11.7762 4.7016Z" fill="#3A7F0D"/>
<path d="M21.5195 29.123C21.9535 29.1235 22.3852 29.1854 22.8019 29.3069C22.6752 29.9292 22.4214 30.5186 22.0564 31.0383C21.6914 31.558 21.2231 31.9968 20.6808 32.3273C20.1385 32.6577 19.5338 32.8727 18.9046 32.9588C18.2754 33.0448 17.6352 33.0001 17.024 32.8274C17.2285 31.7849 17.7884 30.8457 18.6083 30.1701C19.4282 29.4945 20.4571 29.1244 21.5195 29.123Z" fill="#88D882"/>
<path d="M31.1998 32.9315C30.605 33.0738 29.9873 33.0918 29.3852 32.9844C28.7832 32.877 28.2098 32.6465 27.7009 32.3073C27.1921 31.9681 26.7587 31.5276 26.4279 31.0132C26.0971 30.4989 25.8761 29.9218 25.7786 29.318C26.3736 29.1702 26.9929 29.1481 27.597 29.2532C28.201 29.3583 28.7765 29.5882 29.2867 29.9282C29.7969 30.2683 30.2305 30.711 30.5599 31.2281C30.8893 31.7452 31.1072 32.3254 31.1998 32.9315Z" fill="#49A010"/>
<path d="M34.7605 26.4521C34.76 26.8337 34.713 27.2138 34.6203 27.584C33.9843 27.4794 33.3767 27.2447 32.8355 26.8945C32.2944 26.5444 31.8313 26.0863 31.4753 25.5489C31.1193 25.0116 30.878 24.4066 30.7665 23.7717C30.655 23.1369 30.6758 22.4859 30.8274 21.8594C31.9223 22.0316 32.9198 22.5887 33.6408 23.4305C34.3617 24.2724 34.7587 25.3437 34.7605 26.4521Z" fill="#49A010"/>
<path d="M25.5816 19.8618C26.6215 19.8608 27.63 20.2182 28.4371 20.874C28.0824 21.3943 27.6241 21.8358 27.0909 22.1708C26.5577 22.5059 25.961 22.7272 25.3383 22.8211C24.7156 22.915 24.0803 22.8793 23.472 22.7163C22.8637 22.5533 22.2956 22.2666 21.8033 21.8739C22.2187 21.2534 22.781 20.7451 23.4401 20.3941C24.0992 20.0431 24.8348 19.8602 25.5816 19.8618Z" fill="#49A010"/>
<path d="M29.6397 6.60352C30.3933 6.6037 31.135 6.7918 31.7976 7.15077C31.5443 7.7287 31.1745 8.24815 30.7113 8.67664C30.2481 9.10512 29.7015 9.43343 29.1056 9.64102C28.5098 9.84861 27.8775 9.93102 27.2483 9.88309C26.6192 9.83516 26.0066 9.65793 25.4491 9.36248C25.8007 8.54281 26.3853 7.84443 27.1303 7.35397C27.8752 6.86351 28.7478 6.60257 29.6397 6.60352Z" fill="#49A010"/>
<path d="M23.7572 11.4644C24.1969 11.9631 24.5288 12.5473 24.7324 13.1803C24.9359 13.8133 25.0066 14.4815 24.94 15.1431C24.8734 15.8046 24.671 16.4453 24.3455 17.0251C24.0199 17.6048 23.5782 18.1112 23.0479 18.5123C22.6037 18.0157 22.2678 17.4319 22.0616 16.7983C21.8553 16.1647 21.7833 15.4951 21.85 14.8321C21.9167 14.1691 22.1207 13.5273 22.4491 12.9475C22.7774 12.3677 23.2229 11.8626 23.7572 11.4644Z" fill="#49A010"/>
<path d="M21.072 10.7563H1.86536L1.87556 11.8454C1.88649 13.0022 2.14246 14.1434 2.62658 15.194C3.11071 16.2446 3.812 17.1807 4.68424 17.9405L7.56603 20.4509L15.5216 20.4024L18.3474 17.8792C19.2172 17.1026 19.911 16.1492 20.3824 15.0828C20.8538 14.0163 21.0919 12.8614 21.0809 11.6955L21.072 10.7563Z" fill="#49A010"/>
<path d="M21.0721 10.7563H18.9457C18.9553 11.7692 18.7484 12.7724 18.3389 13.6988C17.9293 14.6252 17.3266 15.4534 16.571 16.128L14.4962 17.9807C13.7779 18.622 12.8503 18.9791 11.8873 18.985L5.92474 19.0213L7.56623 20.4514L15.5218 20.4029L18.3476 17.8797C19.2174 17.1031 19.9112 16.1496 20.3826 15.0832C20.854 14.0167 21.0921 12.8619 21.0811 11.6959L21.0721 10.7563Z" fill="#3A7F0D"/>
</g>
<defs>
<clipPath id="clip0_2_7667">
<rect width="36.5217" height="36.5217" fill="white" transform="translate(0.0435181 0.043457)"/>
</clipPath>
</defs>
</svg>
