<svg width="19" height="31" viewBox="0 0 19 31" fill="none" xmlns="http://www.w3.org/2000/svg">
<path d="M18.6473 15.2145L18.6377 14.577L18.0277 14.3919C17.9076 14.3554 15.8923 13.7588 13.824 14.0408L10.83 6.15558C11.8313 5.70462 12.5302 4.6977 12.5302 3.53019C12.5302 1.94322 11.2391 0.6521 9.65218 0.6521C8.06521 0.6521 6.77408 1.94322 6.77408 3.53019H8.52089C8.52089 2.90641 9.02839 2.3989 9.65218 2.3989C10.276 2.3989 10.7835 2.90641 10.7835 3.53019C10.7835 4.15398 10.276 4.66142 9.65218 4.66142H9.04988L5.48337 14.0411C3.41393 13.7581 1.39666 14.3554 1.2766 14.3918L0.666612 14.577L0.657004 15.2144C0.654792 15.3614 0.631792 18.1925 1.95948 20.2745H17.3449V20.2745C18.6725 18.1925 18.6494 15.3614 18.6473 15.2145ZM11.2472 15.0251C10.5252 15.5641 10.0141 16.2954 9.65212 17.0704C9.29012 16.2954 8.77901 15.5641 8.05699 15.0251C7.7789 14.8175 7.4823 14.6473 7.17433 14.5087L9.65555 7.98344L12.1327 14.5075C11.8237 14.6463 11.5261 14.8169 11.2472 15.0251Z" fill="#3A7F0D"/>
<path d="M2.85242 22.0212L5.26697 30.4641H14.0373L16.4518 22.0212H2.85242Z" fill="#3A7F0D"/>
</svg>
