<svg width="30" height="30" viewBox="0 0 30 30" fill="none" xmlns="http://www.w3.org/2000/svg">
<g clip-path="url(#clip0_2_7656)">
<path d="M19.9926 0.652344C19.9926 0.652344 22.5276 6.85419 11.6628 11.0199C5.75912 13.2829 1.22474 19.083 6.63879 28.0427C7.08716 24.0378 9.00975 15.2077 17.2768 13.1927C17.2768 13.1927 9.58232 16.0699 8.90262 29.0936C12.8563 29.6487 22.129 30.0217 24.882 21.9749C28.5174 11.3432 19.9926 0.652344 19.9926 0.652344Z" fill="#3A7F0D"/>
<path d="M8.90621 29.0394C17.2997 25.6896 23.4069 17.8424 24.2498 8.47458C22.5339 3.84605 19.9926 0.652344 19.9926 0.652344C19.9926 0.652344 22.5276 6.85419 11.6628 11.0199C5.75912 13.2829 1.22474 19.083 6.63879 28.0427C7.08716 24.0378 9.00975 15.2077 17.2768 13.1927C17.2763 13.1928 9.60475 16.0628 8.90621 29.0394Z" fill="#49A010"/>
<path d="M5.80125 11.2266C6.23461 11.2266 6.58592 10.8753 6.58592 10.4419C6.58592 10.0085 6.23461 9.65723 5.80125 9.65723C5.36789 9.65723 5.01659 10.0085 5.01659 10.4419C5.01659 10.8753 5.36789 11.2266 5.80125 11.2266Z" fill="#3A7F0D"/>
<path d="M8.26727 10.2181C8.5768 10.2181 8.82772 9.96715 8.82772 9.65762C8.82772 9.34809 8.5768 9.09717 8.26727 9.09717C7.95774 9.09717 7.70682 9.34809 7.70682 9.65762C7.70682 9.96715 7.95774 10.2181 8.26727 10.2181Z" fill="#49A010"/>
<path d="M7.76288 5.73439C8.53671 5.73439 9.16401 5.10708 9.16401 4.33326C9.16401 3.55944 8.53671 2.93213 7.76288 2.93213C6.98906 2.93213 6.36176 3.55944 6.36176 4.33326C6.36176 5.10708 6.98906 5.73439 7.76288 5.73439Z" fill="#49A010"/>
<path d="M12.0784 7.97633C12.3261 7.97633 12.5268 7.77559 12.5268 7.52796C12.5268 7.28033 12.3261 7.07959 12.0784 7.07959C11.8308 7.07959 11.6301 7.28033 11.6301 7.52796C11.6301 7.77559 11.8308 7.97633 12.0784 7.97633Z" fill="#49A010"/>
<path d="M15.8339 6.29489C16.5459 6.29489 17.123 5.71777 17.123 5.00585C17.123 4.29392 16.5459 3.7168 15.8339 3.7168C15.122 3.7168 14.5449 4.29392 14.5449 5.00585C14.5449 5.71777 15.122 6.29489 15.8339 6.29489Z" fill="#49A010"/>
</g>
<defs>
<clipPath id="clip0_2_7656">
<rect width="28.6957" height="28.6957" fill="white" transform="translate(0.652176 0.652344)"/>
</clipPath>
</defs>
</svg>
